<mxfile host="65bd71144e">
    <diagram id="5SlZNHnCdxv1skxgpBp4" name="Page-1">
        <mxGraphModel dx="2247" dy="971" grid="1" gridSize="10" guides="1" tooltips="1" connect="1" arrows="1" fold="1" page="1" pageScale="1" pageWidth="850" pageHeight="1100" background="#ffffff" math="0" shadow="1">
            <root>
                <mxCell id="0"/>
                <mxCell id="1" parent="0"/>
                <mxCell id="2" value="" style="whiteSpace=wrap;html=1;aspect=fixed;fillColor=#e1d5e7;strokeColor=#9673a6;" parent="1" vertex="1">
                    <mxGeometry x="160" y="290" width="710" height="710" as="geometry"/>
                </mxCell>
                <mxCell id="3" value="&lt;font color=&quot;#1f1f1f&quot; style=&quot;font-size: 18px;&quot;&gt;Customer&lt;/font&gt;" style="shape=umlActor;verticalLabelPosition=bottom;verticalAlign=top;html=1;outlineConnect=0;fillColor=#dae8fc;strokeColor=#6c8ebf;" parent="1" vertex="1">
                    <mxGeometry x="70" y="800" width="70" height="130" as="geometry"/>
                </mxCell>
                <mxCell id="4" value="&lt;font color=&quot;#141414&quot; style=&quot;font-size: 18px;&quot;&gt;Owner&lt;/font&gt;" style="shape=umlActor;verticalLabelPosition=bottom;verticalAlign=top;html=1;outlineConnect=0;fillColor=#fad9d5;strokeColor=#ae4132;" parent="1" vertex="1">
                    <mxGeometry x="60" y="420" width="70" height="130" as="geometry"/>
                </mxCell>
                <mxCell id="10" value="&lt;font color=&quot;#0a0a0a&quot;&gt;Create Recipe&lt;/font&gt;" style="ellipse;whiteSpace=wrap;html=1;fontSize=18;fillColor=#ffe6cc;strokeColor=#d79b00;" parent="1" vertex="1">
                    <mxGeometry x="370" y="400" width="130" height="70" as="geometry"/>
                </mxCell>
                <mxCell id="13" value="&lt;font color=&quot;#050505&quot;&gt;View Recipe&lt;/font&gt;" style="ellipse;whiteSpace=wrap;html=1;fontSize=18;fillColor=#ffe6cc;strokeColor=#d79b00;" parent="1" vertex="1">
                    <mxGeometry x="510" y="360" width="130" height="70" as="geometry"/>
                </mxCell>
                <mxCell id="14" value="&lt;font color=&quot;#000000&quot;&gt;Update Recipe&lt;/font&gt;" style="ellipse;whiteSpace=wrap;html=1;fontSize=18;fillColor=#ffe6cc;strokeColor=#d79b00;" parent="1" vertex="1">
                    <mxGeometry x="680" y="420" width="130" height="70" as="geometry"/>
                </mxCell>
                <mxCell id="15" value="&lt;font color=&quot;#050505&quot;&gt;Search Recipe&lt;/font&gt;" style="ellipse;whiteSpace=wrap;html=1;fontSize=18;fillColor=#ffe6cc;strokeColor=#d79b00;" parent="1" vertex="1">
                    <mxGeometry x="460" y="515" width="130" height="70" as="geometry"/>
                </mxCell>
                <mxCell id="16" value="&lt;font color=&quot;#1c1c1c&quot;&gt;Delete Recipe&lt;/font&gt;" style="ellipse;whiteSpace=wrap;html=1;fontSize=18;fillColor=#ffe6cc;strokeColor=#d79b00;" parent="1" vertex="1">
                    <mxGeometry x="657" y="500" width="130" height="70" as="geometry"/>
                </mxCell>
                <mxCell id="17" value="" style="endArrow=none;html=1;fontSize=18;fontColor=#1C1C1C;entryX=1;entryY=0.3333333333333333;entryDx=0;entryDy=0;entryPerimeter=0;exitX=0;exitY=0;exitDx=0;exitDy=0;strokeColor=#171717;" parent="1" source="13" target="4" edge="1">
                    <mxGeometry width="50" height="50" relative="1" as="geometry">
                        <mxPoint x="440" y="660" as="sourcePoint"/>
                        <mxPoint x="490" y="610" as="targetPoint"/>
                    </mxGeometry>
                </mxCell>
                <mxCell id="18" value="&lt;font style=&quot;font-size: 24px;&quot;&gt;Use Case Diagram for Pizza Store Application&lt;/font&gt;" style="text;html=1;strokeColor=none;fillColor=none;align=center;verticalAlign=middle;whiteSpace=wrap;rounded=0;labelBackgroundColor=none;fontSize=18;fontColor=#1C1C1C;" parent="1" vertex="1">
                    <mxGeometry x="211.5" y="200" width="607" height="70" as="geometry"/>
                </mxCell>
                <mxCell id="19" value="&lt;font color=&quot;#ffffff&quot; style=&quot;font-size: 24px;&quot;&gt;Use Case Diagram for Pizza Store Application&lt;/font&gt;" style="text;html=1;strokeColor=none;fillColor=none;align=center;verticalAlign=middle;whiteSpace=wrap;rounded=0;labelBackgroundColor=none;fontSize=18;fontColor=#1C1C1C;" parent="1" vertex="1">
                    <mxGeometry x="180" y="1020" width="607" height="70" as="geometry"/>
                </mxCell>
                <mxCell id="20" value="&lt;font color=&quot;#ffffff&quot; style=&quot;font-size: 24px;&quot;&gt;Use Case Diagram for Pizza Store Application&lt;/font&gt;" style="text;html=1;strokeColor=none;fillColor=none;align=center;verticalAlign=middle;whiteSpace=wrap;rounded=0;labelBackgroundColor=none;fontSize=18;fontColor=#1C1C1C;" parent="1" vertex="1">
                    <mxGeometry x="930" y="370" width="10" height="430" as="geometry"/>
                </mxCell>
                <mxCell id="21" value="" style="endArrow=none;html=1;fontSize=18;fontColor=#1C1C1C;entryX=1;entryY=0.3333333333333333;entryDx=0;entryDy=0;entryPerimeter=0;exitX=0;exitY=0.5;exitDx=0;exitDy=0;strokeColor=#171717;" parent="1" source="10" target="4" edge="1">
                    <mxGeometry width="50" height="50" relative="1" as="geometry">
                        <mxPoint x="330" y="455" as="sourcePoint"/>
                        <mxPoint x="150" y="373.33333333333326" as="targetPoint"/>
                    </mxGeometry>
                </mxCell>
                <mxCell id="22" value="" style="endArrow=none;html=1;fontSize=18;fontColor=#1C1C1C;entryX=1;entryY=0.3333333333333333;entryDx=0;entryDy=0;entryPerimeter=0;exitX=0.023;exitY=0.343;exitDx=0;exitDy=0;strokeColor=#171717;exitPerimeter=0;" parent="1" source="16" target="4" edge="1">
                    <mxGeometry width="50" height="50" relative="1" as="geometry">
                        <mxPoint x="340" y="465" as="sourcePoint"/>
                        <mxPoint x="160" y="383.33333333333326" as="targetPoint"/>
                    </mxGeometry>
                </mxCell>
                <mxCell id="23" value="" style="endArrow=none;html=1;fontSize=18;fontColor=#1C1C1C;entryX=1;entryY=0.3333333333333333;entryDx=0;entryDy=0;entryPerimeter=0;exitX=0;exitY=1;exitDx=0;exitDy=0;strokeColor=#171717;" parent="1" source="14" target="4" edge="1">
                    <mxGeometry width="50" height="50" relative="1" as="geometry">
                        <mxPoint x="350" y="475" as="sourcePoint"/>
                        <mxPoint x="170" y="393.33333333333326" as="targetPoint"/>
                    </mxGeometry>
                </mxCell>
                <mxCell id="24" value="" style="endArrow=none;html=1;fontSize=18;fontColor=#1C1C1C;entryX=1;entryY=0.3333333333333333;entryDx=0;entryDy=0;entryPerimeter=0;exitX=0;exitY=0.5;exitDx=0;exitDy=0;strokeColor=#171717;" parent="1" source="15" target="4" edge="1">
                    <mxGeometry width="50" height="50" relative="1" as="geometry">
                        <mxPoint x="360" y="485" as="sourcePoint"/>
                        <mxPoint x="180" y="403.33333333333326" as="targetPoint"/>
                    </mxGeometry>
                </mxCell>
                <mxCell id="34" value="&lt;font color=&quot;#050505&quot;&gt;Create Inventory&lt;/font&gt;" style="ellipse;whiteSpace=wrap;html=1;fontSize=18;fillColor=#ffe6cc;strokeColor=#d79b00;" parent="1" vertex="1">
                    <mxGeometry x="205" y="300" width="150" height="70" as="geometry"/>
                </mxCell>
                <mxCell id="36" value="&lt;font color=&quot;#050505&quot;&gt;Update Inventory&lt;/font&gt;" style="ellipse;whiteSpace=wrap;html=1;fontSize=18;fillColor=#ffe6cc;strokeColor=#d79b00;" parent="1" vertex="1">
                    <mxGeometry x="408.5" y="290" width="150" height="70" as="geometry"/>
                </mxCell>
                <mxCell id="37" value="&lt;font color=&quot;#050505&quot;&gt;Delete Inventory&lt;/font&gt;" style="ellipse;whiteSpace=wrap;html=1;fontSize=18;fillColor=#ffe6cc;strokeColor=#d79b00;" parent="1" vertex="1">
                    <mxGeometry x="610" y="300" width="150" height="70" as="geometry"/>
                </mxCell>
                <mxCell id="38" value="" style="endArrow=none;html=1;fontSize=18;fontColor=#1C1C1C;entryX=1;entryY=0.3333333333333333;entryDx=0;entryDy=0;entryPerimeter=0;exitX=0;exitY=0.5;exitDx=0;exitDy=0;strokeColor=#171717;" parent="1" source="34" target="4" edge="1">
                    <mxGeometry width="50" height="50" relative="1" as="geometry">
                        <mxPoint x="350" y="525" as="sourcePoint"/>
                        <mxPoint x="140" y="473.33333333333326" as="targetPoint"/>
                    </mxGeometry>
                </mxCell>
                <mxCell id="39" value="" style="endArrow=none;html=1;fontSize=18;fontColor=#1C1C1C;entryX=1;entryY=0.3333333333333333;entryDx=0;entryDy=0;entryPerimeter=0;exitX=0;exitY=0.5;exitDx=0;exitDy=0;strokeColor=#171717;" parent="1" source="37" target="4" edge="1">
                    <mxGeometry width="50" height="50" relative="1" as="geometry">
                        <mxPoint x="370" y="635" as="sourcePoint"/>
                        <mxPoint x="105" y="495" as="targetPoint"/>
                    </mxGeometry>
                </mxCell>
                <mxCell id="40" value="" style="endArrow=none;html=1;fontSize=18;fontColor=#1C1C1C;entryX=1;entryY=0.3333333333333333;entryDx=0;entryDy=0;entryPerimeter=0;exitX=0.077;exitY=0.714;exitDx=0;exitDy=0;strokeColor=#171717;exitPerimeter=0;" parent="1" source="36" target="4" edge="1">
                    <mxGeometry width="50" height="50" relative="1" as="geometry">
                        <mxPoint x="380" y="645" as="sourcePoint"/>
                        <mxPoint x="115" y="505" as="targetPoint"/>
                    </mxGeometry>
                </mxCell>
                <mxCell id="41" value="&lt;font color=&quot;#050505&quot;&gt;Create Menu&lt;/font&gt;" style="ellipse;whiteSpace=wrap;html=1;fontSize=18;fillColor=#ffe6cc;strokeColor=#d79b00;" parent="1" vertex="1">
                    <mxGeometry x="240" y="490" width="150" height="70" as="geometry"/>
                </mxCell>
                <mxCell id="42" value="&lt;font color=&quot;#050505&quot;&gt;Update Menu&lt;/font&gt;" style="ellipse;whiteSpace=wrap;html=1;fontSize=18;fillColor=#ffe6cc;strokeColor=#d79b00;" parent="1" vertex="1">
                    <mxGeometry x="450" y="630" width="150" height="70" as="geometry"/>
                </mxCell>
                <mxCell id="43" value="&lt;font color=&quot;#050505&quot;&gt;Delete Menu&lt;/font&gt;" style="ellipse;whiteSpace=wrap;html=1;fontSize=18;fillColor=#ffe6cc;strokeColor=#d79b00;" parent="1" vertex="1">
                    <mxGeometry x="350" y="570" width="150" height="70" as="geometry"/>
                </mxCell>
                <mxCell id="56" value="" style="endArrow=none;html=1;fontSize=18;fontColor=#1C1C1C;entryX=0.5;entryY=0.5;entryDx=0;entryDy=0;entryPerimeter=0;exitX=0;exitY=0.4;exitDx=0;exitDy=0;strokeColor=#171717;exitPerimeter=0;" parent="1" source="41" target="4" edge="1">
                    <mxGeometry width="50" height="50" relative="1" as="geometry">
                        <mxPoint x="470" y="560" as="sourcePoint"/>
                        <mxPoint x="140" y="473.33333333333326" as="targetPoint"/>
                    </mxGeometry>
                </mxCell>
                <mxCell id="57" value="" style="endArrow=none;html=1;fontSize=18;fontColor=#1C1C1C;entryX=0.5;entryY=0.5;entryDx=0;entryDy=0;entryPerimeter=0;exitX=0;exitY=0.5;exitDx=0;exitDy=0;strokeColor=#171717;" parent="1" source="43" target="4" edge="1">
                    <mxGeometry width="50" height="50" relative="1" as="geometry">
                        <mxPoint x="290" y="578" as="sourcePoint"/>
                        <mxPoint x="105" y="495" as="targetPoint"/>
                    </mxGeometry>
                </mxCell>
                <mxCell id="58" value="" style="endArrow=none;html=1;fontSize=18;fontColor=#1C1C1C;entryX=0.5;entryY=0.5;entryDx=0;entryDy=0;entryPerimeter=0;exitX=0;exitY=1;exitDx=0;exitDy=0;strokeColor=#171717;" parent="1" source="42" target="4" edge="1">
                    <mxGeometry width="50" height="50" relative="1" as="geometry">
                        <mxPoint x="260" y="685" as="sourcePoint"/>
                        <mxPoint x="105" y="495" as="targetPoint"/>
                    </mxGeometry>
                </mxCell>
                <mxCell id="59" value="&lt;font color=&quot;#050505&quot;&gt;View Menu&lt;/font&gt;" style="ellipse;whiteSpace=wrap;html=1;fontSize=18;fillColor=#ffe6cc;strokeColor=#d79b00;" vertex="1" parent="1">
                    <mxGeometry x="211.5" y="610" width="150" height="70" as="geometry"/>
                </mxCell>
                <mxCell id="60" value="" style="endArrow=none;html=1;fontSize=18;fontColor=#1C1C1C;entryX=0.5;entryY=0.5;entryDx=0;entryDy=0;entryPerimeter=0;exitX=0;exitY=0;exitDx=0;exitDy=0;strokeColor=#171717;" edge="1" parent="1" source="59" target="4">
                    <mxGeometry width="50" height="50" relative="1" as="geometry">
                        <mxPoint x="481.96699141100885" y="699.7487373415292" as="sourcePoint"/>
                        <mxPoint x="105" y="495" as="targetPoint"/>
                    </mxGeometry>
                </mxCell>
                <mxCell id="61" value="" style="endArrow=none;html=1;fontSize=18;fontColor=#1C1C1C;entryX=1;entryY=0.3333333333333333;entryDx=0;entryDy=0;entryPerimeter=0;exitX=0.39;exitY=1;exitDx=0;exitDy=0;strokeColor=#171717;exitPerimeter=0;" edge="1" parent="1" source="59" target="3">
                    <mxGeometry width="50" height="50" relative="1" as="geometry">
                        <mxPoint x="491.96699141100885" y="709.7487373415292" as="sourcePoint"/>
                        <mxPoint x="115" y="505" as="targetPoint"/>
                    </mxGeometry>
                </mxCell>
                <mxCell id="62" value="&lt;font color=&quot;#050505&quot;&gt;Create Order&lt;/font&gt;" style="ellipse;whiteSpace=wrap;html=1;fontSize=18;fillColor=#ffe6cc;strokeColor=#d79b00;" vertex="1" parent="1">
                    <mxGeometry x="290" y="710" width="150" height="70" as="geometry"/>
                </mxCell>
                <mxCell id="63" value="&lt;font color=&quot;#050505&quot;&gt;Create Customized Order&lt;/font&gt;" style="ellipse;whiteSpace=wrap;html=1;fontSize=18;fillColor=#ffe6cc;strokeColor=#d79b00;" vertex="1" parent="1">
                    <mxGeometry x="230" y="870" width="180" height="70" as="geometry"/>
                </mxCell>
                <mxCell id="64" value="&lt;font color=&quot;#050505&quot;&gt;View Bill Summary&lt;/font&gt;" style="ellipse;whiteSpace=wrap;html=1;fontSize=18;fillColor=#ffe6cc;strokeColor=#d79b00;" vertex="1" parent="1">
                    <mxGeometry x="425" y="790" width="180" height="70" as="geometry"/>
                </mxCell>
                <mxCell id="65" value="" style="endArrow=none;html=1;fontSize=18;fontColor=#1C1C1C;entryX=1;entryY=0.3333333333333333;entryDx=0;entryDy=0;entryPerimeter=0;exitX=0;exitY=0.5;exitDx=0;exitDy=0;strokeColor=#171717;" edge="1" parent="1" source="62" target="3">
                    <mxGeometry width="50" height="50" relative="1" as="geometry">
                        <mxPoint x="280" y="690" as="sourcePoint"/>
                        <mxPoint x="150" y="853.3333333333333" as="targetPoint"/>
                    </mxGeometry>
                </mxCell>
                <mxCell id="66" value="" style="endArrow=none;html=1;fontSize=18;fontColor=#1C1C1C;entryX=1;entryY=0.3333333333333333;entryDx=0;entryDy=0;entryPerimeter=0;exitX=0;exitY=0.5;exitDx=0;exitDy=0;strokeColor=#171717;" edge="1" parent="1" source="64" target="3">
                    <mxGeometry width="50" height="50" relative="1" as="geometry">
                        <mxPoint x="290" y="700" as="sourcePoint"/>
                        <mxPoint x="160" y="863.3333333333333" as="targetPoint"/>
                    </mxGeometry>
                </mxCell>
                <mxCell id="67" value="" style="endArrow=none;html=1;fontSize=18;fontColor=#1C1C1C;entryX=1;entryY=0.3333333333333333;entryDx=0;entryDy=0;entryPerimeter=0;exitX=0.005;exitY=0.34;exitDx=0;exitDy=0;strokeColor=#171717;exitPerimeter=0;" edge="1" parent="1" source="63" target="3">
                    <mxGeometry width="50" height="50" relative="1" as="geometry">
                        <mxPoint x="300" y="710" as="sourcePoint"/>
                        <mxPoint x="170" y="873.3333333333333" as="targetPoint"/>
                    </mxGeometry>
                </mxCell>
                <mxCell id="69" value="&lt;font color=&quot;#ffffff&quot; style=&quot;font-size: 24px;&quot;&gt;Use Case Diagram for Pizza Store Application&lt;/font&gt;" style="text;html=1;strokeColor=none;fillColor=none;align=center;verticalAlign=middle;whiteSpace=wrap;rounded=0;labelBackgroundColor=none;fontSize=18;fontColor=#1C1C1C;" vertex="1" parent="1">
                    <mxGeometry x="50" y="460" width="10" height="430" as="geometry"/>
                </mxCell>
            </root>
        </mxGraphModel>
    </diagram>
</mxfile>